<svg xmlns="http://www.w3.org/2000/svg" viewBox="0 0 512 512" role="img" aria-labelledby="title desc">
<title id="title">DustEthic mark</title>
<desc id="desc">A dust stream becoming a transparent donation seed.</desc>
<defs>
  <radialGradient id="bg" cx="35%" cy="18%" r="90%">
    <stop offset="0" stop-color="#1b2c5b"/>
    <stop offset="0.38" stop-color="#071326"/>
    <stop offset="1" stop-color="#030713"/>
  </radialGradient>
  <linearGradient id="dust" x1="80" x2="430" y1="430" y2="68" gradientUnits="userSpaceOnUse">
    <stop stop-color="#8f5bff"/>
    <stop offset="0.55" stop-color="#18c7ff"/>
    <stop offset="1" stop-color="#b4ff53"/>
  </linearGradient>
  <linearGradient id="leaf" x1="170" x2="375" y1="330" y2="150" gradientUnits="userSpaceOnUse">
    <stop stop-color="#35d2ff"/>
    <stop offset="0.55" stop-color="#b4ff53"/>
    <stop offset="1" stop-color="#fff46d"/>
  </linearGradient>
  <filter id="glow" x="-40%" y="-40%" width="180%" height="180%">
    <feGaussianBlur stdDeviation="8" result="b"/>
    <feMerge><feMergeNode in="b"/><feMergeNode in="SourceGraphic"/></feMerge>
  </filter>
</defs>
<rect width="512" height="512" rx="112" fill="url(#bg)"/>
<path d="M72 368 C132 314 188 316 246 242 C298 176 360 114 442 98" fill="none" stroke="url(#dust)" stroke-width="46" stroke-linecap="round" opacity="0.18"/>
<path d="M88 365 C149 316 199 305 252 240 C303 176 358 128 426 112" fill="none" stroke="url(#dust)" stroke-width="16" stroke-linecap="round" filter="url(#glow)"/>
<g fill="url(#dust)" opacity="0.96">
  <circle cx="84" cy="374" r="8"/><circle cx="113" cy="344" r="5"/><rect x="142" y="313" width="10" height="10" rx="3" transform="rotate(25 147 318)"/>
  <circle cx="178" cy="300" r="6"/><rect x="211" y="260" width="13" height="13" rx="4" transform="rotate(39 217 266)"/><circle cx="241" cy="226" r="5"/>
  <circle cx="274" cy="190" r="7"/><rect x="309" y="153" width="11" height="11" rx="3" transform="rotate(33 314 158)"/><circle cx="348" cy="126" r="5"/><rect x="390" y="93" width="14" height="14" rx="4" transform="rotate(42 397 100)"/>
</g>
<g transform="translate(0,6)">
  <path d="M171 343 C222 373 288 369 358 333 C379 322 398 328 407 346 C371 390 326 412 272 410 C224 409 187 394 154 369 C144 361 154 335 171 343Z" fill="#0d1630" stroke="rgba(255,255,255,.55)" stroke-width="8"/>
  <path d="M248 320 C198 279 206 222 263 172 C328 218 332 282 270 335" fill="url(#leaf)"/>
  <path d="M276 335 C274 269 314 223 399 197 C417 276 384 326 289 351" fill="url(#leaf)"/>
  <path d="M267 374 L267 237" stroke="#f3fff9" stroke-width="18" stroke-linecap="round"/>
  <path d="M232 252 C253 268 264 288 267 319" stroke="#f3fff9" stroke-width="8" stroke-linecap="round" fill="none" opacity="0.92"/>
  <path d="M300 279 C292 293 281 314 268 343" stroke="#f3fff9" stroke-width="8" stroke-linecap="round" fill="none" opacity="0.92"/>
</g>
<circle cx="150" cy="139" r="32" fill="none" stroke="#18c7ff" stroke-width="8" opacity="0.9"/>
<path d="M130 139h40M150 119c9 12 9 28 0 40M150 119c-9 12-9 28 0 40" stroke="#8f5bff" stroke-width="5" stroke-linecap="round" fill="none"/>
<path d="M401 158h38M420 139v38" stroke="#f3fff9" stroke-width="13" stroke-linecap="round" opacity="0.95"/>
<circle cx="407" cy="405" r="5" fill="#b4ff53"/><circle cx="444" cy="360" r="4" fill="#18c7ff"/><circle cx="76" cy="210" r="4" fill="#8f5bff"/>
</svg>